<svg width="1082" height="2150" viewBox="0 0 1082 2150" fill="none" xmlns="http://www.w3.org/2000/svg">
<path d="M112.734 1038.67C112.734 1038.67 91.0572 1082.02 60.0872 1111.14C29.1173 1140.24 -0.607448 1159.48 0.00943736 1168.75C0.626323 1178.03 14.2549 1176.99 32.8358 1164.82C32.8358 1164.82 11.1591 1180.51 11.776 1188.56C12.3929 1196.62 23.5425 1197.85 41.5064 1179.89C41.5064 1179.89 24.1651 1199.71 28.5004 1205.29C32.8358 1210.86 56.3688 1188.56 56.3688 1188.56C56.3688 1188.56 38.4106 1213.33 48.9433 1215.2C59.4703 1217.05 99.1109 1172.46 112.74 1158.83C126.362 1145.21 113.356 1160.72 107.165 1168.76C100.973 1176.79 91.6798 1195.38 103.446 1191.04C115.213 1186.7 149.861 1141.49 159.789 1121.05C169.716 1100.62 172.503 1079.56 173.274 1070.88C174.051 1062.21 116.447 1022.57 112.734 1038.67Z" fill="white"/>
<path d="M977.773 274.171C977.773 274.171 979.201 192 966.721 151.126C954.24 110.245 949.282 96.6226 955.891 94.5549C962.499 92.4929 982.731 139.148 982.731 139.148C982.731 139.148 978.601 47.0719 989.34 45.0041C1000.07 42.9422 1003.38 116.437 1003.38 116.437C1003.38 116.437 1000.49 47.4831 1010.81 47.0661C1021.13 46.6549 1024.36 124.28 1024.36 124.28C1024.36 124.28 1026.5 46.5692 1036.41 44.9584C1046.32 43.3477 1047.56 120.978 1047.56 120.978C1047.56 120.978 1050.04 40.0462 1059.53 40.4632C1069.03 40.8744 1073.57 157.729 1073.57 187.048C1073.57 216.367 1071.92 272.521 1068.62 281.191C1065.31 289.862 977.727 282.842 977.773 274.171Z" fill="white"/>
<path d="M1011.56 197.529C1019.96 175.481 997.788 155.941 980.92 146.802C978.498 145.488 976.334 149.184 978.755 150.503C993.972 158.751 1015.1 176.246 1007.43 196.392C1006.45 198.968 1010.59 200.082 1011.56 197.529Z" fill="black"/>
<path d="M159.783 1294L213.652 1379.52L259.673 1324.81L196.87 1246.26L159.783 1294Z" fill="white"/>
<path d="M24.9707 1343.13C24.9707 1343.13 12.9471 1360.96 21.6178 1358.06C30.2884 1355.17 85.9452 1354.53 128.356 1301.9C128.356 1301.9 153.546 1321.1 159.12 1317.39C164.695 1313.67 212.384 1250.5 212.384 1242.45C212.384 1234.4 156.11 1163 151.644 1169.13C147.177 1175.26 24.9707 1343.13 24.9707 1343.13Z" fill="#FF6E0B"/>
<path d="M128.356 1231.29C128.356 1231.29 134.964 1282.9 148.587 1278.78C162.21 1274.65 155.607 1250.28 155.607 1250.28C155.607 1250.28 170.058 1254.41 174.188 1245.33C178.318 1236.25 165.517 1227.99 128.356 1231.29Z" fill="white"/>
<path d="M19.744 1356.35C65.7819 1293.11 111.82 1229.86 157.863 1166.62C160.571 1162.9 154.379 1159.33 151.7 1163.01C105.662 1226.25 59.6244 1289.5 13.5808 1352.74C10.8734 1356.46 17.0651 1360.03 19.744 1356.35Z" fill="black"/>
<path d="M562.803 1866.54L628.473 1802.35L661.391 1866.24L596.663 1938.19L562.803 1866.54Z" fill="white"/>
<path d="M489.942 1902.8L564.865 1833.93L617.512 1965.85L573.25 2014.73C573.25 2014.73 574.364 2093.03 537.597 2142.87L489.942 1902.8Z" fill="#FF6E0B"/>
<path d="M530.183 1946.04C530.183 1946.04 526.053 1884.52 541.743 1885.76C557.434 1887 554.955 1927.46 554.955 1927.46C554.955 1927.46 586.336 1930.35 584.686 1941.91C583.035 1953.47 557.845 1957.6 530.183 1946.04Z" fill="white"/>
<path d="M485.864 1900.53C502.171 1982.7 518.485 2064.87 534.792 2147.04C535.683 2151.54 542.566 2149.64 541.675 2145.15C525.367 2062.97 509.054 1980.81 492.747 1898.64C491.856 1894.14 484.967 1896.04 485.864 1900.53Z" fill="black"/>
<path d="M97.8657 1041.77C97.8657 1041.77 120.919 804.704 191.147 754.148C261.375 703.598 414.499 652.248 509.266 634.592C604.032 616.937 771.727 578.501 843.578 512.843C915.422 447.185 954.149 351.802 963.899 314.64C973.643 277.478 962.151 250.227 1003.2 246.508C1044.25 242.79 1076.46 240.317 1081.42 279.952C1086.37 319.592 1061.21 563.902 953.635 687.633C846.057 811.364 713.512 841.192 704.224 844.242V961.65L424.901 1016.17L409.25 844.242C409.25 844.242 302.26 871.613 261.38 921.387C220.5 971.16 183.487 1060.35 177.838 1082.65C172.189 1104.94 99.1052 1077.69 97.8657 1041.77Z" fill="white"/>
<path d="M637.572 636.198C640 658.645 610.801 680.208 572.36 684.366C533.918 688.524 500.784 673.702 498.356 651.254C495.929 628.806 525.128 607.244 563.569 603.086C602.01 598.927 635.145 613.75 637.572 636.198Z" fill="#FF6E0B"/>
<path d="M103.006 1000.85C99.4365 1025.61 97.8657 1041.77 97.8657 1041.77C99.1052 1077.69 172.189 1104.94 177.838 1082.65C179.535 1075.96 184.064 1063.23 190.661 1047.37C162.45 1031.88 123.941 1011.73 103.006 1000.85Z" fill="#FF6E0B"/>
<path d="M1003.2 246.509C967.337 249.753 971.581 270.973 966.721 301.063C993.212 304.867 1053.1 313.132 1081.19 314.349C1082.21 298.407 1082.22 286.418 1081.42 279.952C1076.46 240.311 1044.25 242.79 1003.2 246.509Z" fill="#FF6E0B"/>
<path d="M152.449 990.558C152.917 984.241 155.014 977.341 158.212 971.418C161.879 964.638 159.897 955.864 153.089 951.877C146.589 948.073 137.232 950.192 133.554 957.001C127.853 967.545 124.775 978.632 123.889 990.558C123.318 998.258 130.864 1004.84 138.169 1004.84C146.371 1004.84 151.872 998.281 152.449 990.558Z" fill="#FF6E0B"/>
<path d="M182.476 906.799C182.728 905.28 183.03 903.777 183.47 902.298C183.687 901.561 183.933 900.83 184.207 900.11C183.482 901.738 183.464 901.818 184.15 900.35C184.921 899.008 185.669 897.688 186.492 896.375C187.428 895.072 187.383 895.124 186.366 896.523C186.869 895.941 187.388 895.375 187.931 894.827C193.095 889.423 193.7 879.93 187.931 874.63C182.333 869.495 173.252 868.86 167.74 874.63C161.279 881.387 156.47 889.92 154.939 899.208C153.728 906.548 156.853 914.938 164.912 916.772C171.795 918.343 181.18 914.681 182.476 906.799Z" fill="#FF6E0B"/>
<path d="M225.122 823.594C225.722 822.394 226.373 821.229 227.121 820.109C227.367 819.738 228.612 818.013 227.321 819.755C225.916 821.646 227.727 819.39 227.938 819.161C228.663 818.384 230 817.596 230.537 816.711C229.983 817.625 228.183 818.39 230.148 817.076C230.771 816.665 231.405 816.282 232.05 815.905C238.511 812.147 241.344 802.842 237.174 796.371C232.976 789.859 224.545 787.226 217.634 791.247C210.431 795.44 204.216 801.706 200.464 809.183C197.111 815.848 198.476 824.964 205.587 828.723C212.07 832.144 221.54 830.722 225.122 823.594Z" fill="#FF6E0B"/>
<path d="M285.365 845.282C286.17 844.379 286.993 843.505 287.889 842.683C288.335 842.272 288.792 841.877 289.26 841.495C287.547 842.786 287.313 842.986 288.546 842.094C289.58 841.466 290.568 840.787 291.642 840.215C292.173 839.93 292.716 839.667 293.264 839.41C291.231 840.232 290.934 840.37 292.368 839.821C295.932 838.485 298.919 836.645 300.901 833.258C302.689 830.197 303.449 825.684 302.341 822.257C300.136 815.443 292.259 809.474 284.777 812.284C277.311 815.089 270.531 819.064 265.173 825.079C260.21 830.654 259.267 839.85 265.173 845.27C270.6 850.263 280.059 851.239 285.365 845.282Z" fill="#FF6E0B"/>
<path d="M314.896 774.26C316.552 773.34 318.237 772.512 319.922 771.644C322.492 770.324 318.762 771.946 321.721 770.855C324.829 769.707 327.97 768.719 331.186 767.92C338.434 766.109 343.495 757.57 341.159 750.355C338.731 742.85 331.363 738.44 323.595 740.383C315.541 742.393 307.738 745.569 300.484 749.602C293.95 753.234 291.243 762.75 295.361 769.142C299.622 775.751 307.91 778.15 314.896 774.26Z" fill="#FF6E0B"/>
<path d="M365.069 812.672C368.65 811.296 372.226 809.925 375.807 808.548C379.377 807.178 382.347 805.395 384.341 801.985C386.134 798.924 386.888 794.411 385.78 790.984C383.587 784.216 375.682 778.144 368.216 781.011C364.635 782.388 361.059 783.764 357.478 785.135C353.908 786.506 350.938 788.288 348.944 791.698C347.151 794.76 346.397 799.272 347.505 802.699C349.698 809.468 357.603 815.54 365.069 812.672Z" fill="#FF6E0B"/>
<path d="M203.479 968.859C205.41 964.455 207.341 960.051 209.271 955.653C210.871 952.009 211.813 948.65 210.711 944.652C209.797 941.339 207.238 937.752 204.148 936.118C197.962 932.851 187.812 933.936 184.607 941.242C182.677 945.645 180.746 950.049 178.815 954.448C177.216 958.092 176.274 961.45 177.376 965.449C178.29 968.762 180.849 972.349 183.939 973.982C190.131 977.25 200.275 976.159 203.479 968.859Z" fill="#FF6E0B"/>
<path d="M420.885 786.283C421.862 792.087 422.845 797.884 423.821 803.688C425.067 811.073 434.565 815.871 441.385 813.661C449.359 811.079 452.695 804.008 451.358 796.097C450.382 790.293 449.399 784.496 448.423 778.692C447.177 771.307 437.678 766.509 430.858 768.719C422.879 771.295 419.549 778.367 420.885 786.283Z" fill="#FF6E0B"/>
<path d="M464.022 844.739C462.537 854.963 462.582 864.479 464.662 874.652C466.158 881.986 475.234 886.887 482.226 884.625C489.994 882.112 493.804 874.915 492.199 867.061C492.216 867.153 491.445 862.646 491.679 864.525C491.479 862.943 491.399 861.321 491.348 859.727C491.302 858.122 491.319 856.517 491.399 854.918C491.416 854.529 491.844 850.354 491.553 852.336C492.621 844.979 489.742 836.628 481.58 834.772C474.823 833.224 465.17 836.834 464.022 844.739Z" fill="#FF6E0B"/>
<path d="M439.284 938.551C439.61 945.194 439.935 951.837 440.266 958.475C440.666 966.625 446.509 972.155 454.546 972.754C462.331 973.331 470.694 965.574 469.728 957.526C468.843 950.135 463.794 942.875 455.449 943.247C448.474 943.561 440.215 949.581 441.169 957.526C441.192 957.709 441.215 957.892 441.237 958.08C442.631 954.716 444.025 951.352 445.418 947.982C445.281 948.125 445.139 948.273 445.002 948.416C448.366 947.022 451.73 945.628 455.1 944.235C454.917 944.223 454.729 944.206 454.546 944.195C459.304 948.953 464.068 953.717 468.826 958.475C468.5 951.832 468.175 945.189 467.843 938.551C467.478 931.103 461.538 923.912 453.564 924.272C446.138 924.603 438.89 930.56 439.284 938.551Z" fill="#FF6E0B"/>
<path d="M519.661 723.829C519.644 729.044 520.461 734.414 522.426 739.263C523.882 742.85 525.516 745.763 528.989 747.797C532.05 749.59 536.563 750.35 539.99 749.236C546.644 747.083 552.973 739.08 549.963 731.672C549.272 729.975 548.701 728.256 548.318 726.463C548.244 726.137 548.181 725.812 548.129 725.486C547.941 724.389 548.004 724.835 548.312 726.817C548.044 726.703 548.215 724.058 548.215 723.835C548.238 716.364 541.629 709.213 533.935 709.555C526.19 709.898 519.684 715.827 519.661 723.829Z" fill="#FF6E0B"/>
<path d="M584.748 740.8C586.234 749.362 587.713 757.924 589.198 766.486C590.517 774.088 599.845 778.361 606.762 776.459C614.799 774.248 618.055 766.52 616.735 758.895C615.25 750.333 613.771 741.77 612.286 733.208C610.966 725.606 601.639 721.333 594.721 723.235C586.691 725.446 583.429 733.174 584.748 740.8Z" fill="#FF6E0B"/>
<path d="M627.651 680.904C628.176 685.314 628.696 689.718 629.221 694.127C629.684 698.046 630.506 701.324 633.402 704.226C635.881 706.705 639.943 708.567 643.501 708.407C650.481 708.093 658.723 702.073 657.781 694.127C657.255 689.718 656.736 685.314 656.21 680.904C655.747 676.986 654.925 673.707 652.029 670.806C649.55 668.327 645.489 666.465 641.93 666.625C634.95 666.939 626.708 672.959 627.651 680.904Z" fill="#FF6E0B"/>
<path d="M765.176 778.921C771.893 776.053 778.611 773.192 785.328 770.324C792.228 767.383 794.267 756.707 790.451 750.784C785.831 743.615 778.297 742.513 770.911 745.66C764.194 748.528 757.477 751.389 750.759 754.257C743.859 757.198 741.82 767.874 745.636 773.791C750.262 780.966 757.797 782.068 765.176 778.921Z" fill="#FF6E0B"/>
<path d="M758.27 705.688C766.467 703.301 774.378 699.714 781.387 694.824C787.504 690.563 790.92 682.127 786.51 675.29C782.592 669.212 773.527 665.597 766.975 670.166C764.154 672.131 761.235 673.913 758.145 675.427C757.534 675.735 756.911 676.026 756.283 676.306C757.596 675.775 757.465 675.821 755.889 676.438C754.158 677.043 752.433 677.631 750.674 678.145C743.505 680.23 738.302 688.296 740.701 695.71C743.06 702.992 750.588 707.927 758.27 705.688Z" fill="#FF6E0B"/>
<path d="M726.792 648.364C733.949 645.891 741.106 643.417 748.269 640.944C755.312 638.511 760.721 631.045 758.242 623.38C755.986 616.406 748.235 610.791 740.678 613.407C733.521 615.88 726.364 618.353 719.201 620.827C712.158 623.26 706.749 630.725 709.228 638.391C711.484 645.365 719.23 650.974 726.792 648.364Z" fill="#FF6E0B"/>
<path d="M833.593 646.393C841.373 641.824 849.015 637.037 856.515 632.022C862.918 627.744 865.7 619.427 861.639 612.487C857.92 606.13 848.541 603.063 842.098 607.364C834.599 612.373 826.956 617.165 819.176 621.735C812.534 625.636 810.157 634.609 814.053 641.275C817.954 647.935 826.916 650.312 833.593 646.393Z" fill="#FF6E0B"/>
<path d="M880.163 560.578C887.32 554.683 894.825 549.297 902.605 544.247C909.071 540.055 911.749 531.584 907.728 524.713C903.964 518.281 894.688 515.374 888.188 519.589C878.375 525.958 868.99 532.943 859.965 540.386C854.008 545.293 854.882 555.494 859.965 560.583C865.86 566.467 874.194 565.496 880.163 560.578Z" fill="#FF6E0B"/>
<path d="M890.067 693.528C896.122 688.57 902.171 683.606 908.225 678.648C914.029 673.896 913.526 663.318 908.225 658.451C902.062 652.79 894.22 653.379 888.034 658.451C881.985 663.409 875.93 668.373 869.876 673.33C864.072 678.083 864.575 688.661 869.876 693.528C876.039 699.188 883.881 698.6 890.067 693.528Z" fill="#FF6E0B"/>
<path d="M965.973 607.558C970.97 602.092 975.968 596.625 980.972 591.159C986.016 585.647 986.827 576.342 980.972 570.968C975.483 565.924 966.161 565.079 960.775 570.968C955.777 576.434 950.779 581.9 945.781 587.361C940.737 592.873 939.926 602.177 945.781 607.558C951.264 612.602 960.586 613.447 965.973 607.558Z" fill="#FF6E0B"/>
<path d="M965.967 455.381C969.639 450.486 973.061 445.431 976.231 440.199C980.109 433.808 977.853 424.223 971.107 420.659C964.167 416.992 955.708 418.957 951.567 425.782C948.397 431.015 944.975 436.07 941.303 440.965C939.224 443.735 938.989 448.796 939.863 451.966C940.777 455.279 943.336 458.866 946.426 460.499C953.926 464.463 961.163 461.785 965.967 455.381Z" fill="#FF6E0B"/>
<path d="M1038.91 435.247C1040.88 429.204 1042.85 423.161 1044.82 417.123C1047.14 410.018 1042.12 401.216 1034.85 399.559C1027.01 397.771 1019.76 401.924 1017.28 409.532C1015.31 415.575 1013.34 421.618 1011.38 427.662C1009.06 434.767 1014.07 443.569 1021.35 445.226C1029.19 447.008 1036.43 442.855 1038.91 435.247Z" fill="#FF6E0B"/>
<path d="M1016.97 361.872C1019.07 355.783 1021.17 349.688 1023.27 343.6C1025.7 336.528 1020.49 327.675 1013.3 326.036C1005.35 324.225 998.336 328.44 995.731 336.008C993.635 342.097 991.533 348.192 989.437 354.281C987.004 361.352 992.218 370.206 999.41 371.845C1007.35 373.656 1014.36 369.44 1016.97 361.872Z" fill="#FF6E0B"/>
<path d="M970.456 531.91C976.894 524.873 983.331 517.836 989.768 510.799C994.812 505.287 995.623 495.982 989.768 490.607C984.273 485.563 974.957 484.724 969.571 490.607C963.134 497.644 956.696 504.681 950.259 511.712C945.216 517.224 944.404 526.535 950.259 531.91C955.754 536.948 965.07 537.793 970.456 531.91Z" fill="#FF6E0B"/>
<path d="M422.114 719.506C422.565 719.266 423.485 719.009 423.822 718.643C423.028 719.494 421.257 719.597 423.542 718.894C424.678 718.546 429.065 717.918 424.901 718.38C428.802 717.946 432.121 717.072 435 714.199C437.479 711.72 439.341 707.659 439.181 704.101C438.867 697.069 432.852 688.941 424.901 689.821C418.652 690.512 413.3 691.883 407.697 694.847C401.083 698.343 398.518 708.093 402.573 714.388C406.909 721.105 415.037 723.241 422.114 719.506Z" fill="#FF6E0B"/>
<path d="M398.198 749.847C405.909 847.155 413.62 944.458 421.331 1041.77C421.691 1046.32 428.836 1046.35 428.471 1041.77C420.76 944.458 413.049 847.155 405.338 749.847C404.978 745.301 397.832 745.261 398.198 749.847Z" fill="black"/>
<path d="M538.853 541.734C538.853 541.734 529.748 571.048 492.187 589.217C454.62 607.387 386.905 610.688 360.476 557.008C334.053 503.327 353.867 469.496 360.476 443.472C367.085 417.449 350.566 415.792 319.185 411.251C287.803 406.71 246.512 333.21 299.364 296.048C352.217 258.886 395.159 260.537 400.111 226.677C405.069 192.817 380.291 170.523 351.388 179.605C322.486 188.687 282.017 156.483 316.706 111.891C351.388 67.2977 418.28 30.1361 466.18 57.3876C514.08 84.639 493.432 111.891 477.741 135.012C462.051 158.134 462.776 181.256 487.189 167.216C511.602 153.176 558.028 106.104 592.208 156.483C626.388 206.857 594.059 254.757 563.568 270.447C533.078 286.138 523.368 297.493 534.826 304.102C546.284 310.71 561.255 286.138 585.302 314.012C604.706 336.494 570.228 368.932 557.428 372.542C544.633 376.157 538.853 541.734 538.853 541.734Z" fill="#FF6E0B"/>
<path d="M248.683 138.742C284.087 138.742 312.787 107.684 312.787 69.3711C312.787 31.0585 284.087 0 248.683 0C213.278 0 184.578 31.0585 184.578 69.3711C184.578 107.684 213.278 138.742 248.683 138.742Z" fill="#FF6E0B"/>
<path d="M518.21 532.035L527.709 637.945C527.709 637.945 530.782 655.287 554.949 657.766C579.116 660.245 602.032 651.574 603.888 639.802C605.745 628.035 600.792 557.013 600.792 557.013L518.21 532.035Z" fill="white"/>
<path d="M493.952 505.709C493.952 505.709 513.989 546.052 537.574 558.55C561.158 571.048 580.664 579.724 615.038 572.287C649.413 564.856 659.014 505.195 658.706 472.157C658.397 439.12 639.508 384 631.146 381.521C622.784 379.042 532.667 387.096 525.544 388.644C518.421 390.192 504.484 441.907 504.484 441.907C504.484 441.907 486.623 492.709 493.952 505.709Z" fill="white"/>
<path d="M560.307 496.113C560.758 505.338 553.653 513.186 544.428 513.637C535.203 514.089 527.361 506.983 526.904 497.758C526.453 488.534 533.558 480.685 542.783 480.234C552.008 479.777 559.85 486.889 560.307 496.113Z" fill="#FF6E0B"/>
<path d="M648.196 471.466C648.613 479.914 642.61 487.071 634.796 487.46C626.976 487.842 620.305 481.308 619.888 472.86C619.471 464.412 625.474 457.255 633.288 456.867C641.108 456.484 647.779 463.019 648.196 471.466Z" fill="#FF6E0B"/>
<path d="M590.506 443.478C591.26 450.858 592.019 458.238 592.773 465.617C593.327 471.049 601.901 471.106 601.341 465.617C600.587 458.238 599.827 450.858 599.073 443.478C598.514 438.046 589.94 437.989 590.506 443.478Z" fill="black"/>
<path d="M531.256 454.456C532.29 465.589 539.967 475.613 552.122 473.637C564.791 471.575 568.943 458.769 566.447 447.47C565.459 442.987 558.57 444.883 559.564 449.367C561.084 456.244 559.461 464.817 551.585 466.502C546.427 467.605 542.44 465.377 540.218 460.739C539.521 459.283 539.093 457.746 538.716 456.187C538.544 455.479 538.356 454.011 538.396 454.45C537.973 449.921 530.833 449.875 531.256 454.456Z" fill="black"/>
<path d="M610.223 433.488C610.914 441.884 616.146 450.858 625.794 449.11C635.761 447.305 638.086 436.389 636.389 427.793C635.681 424.189 630.169 425.714 630.883 429.312C631.888 434.413 631.226 441.958 625.211 443.415C618.991 444.917 616.306 438.029 615.935 433.493C615.632 429.849 609.92 429.815 610.223 433.488Z" fill="black"/>
<path d="M567.961 499.209C567.961 499.209 572.37 536.679 594.784 535.753C617.197 534.822 616.889 499.209 616.272 489.921C616.272 489.921 600.787 513.763 567.961 499.209Z" fill="white"/>
<path d="M565.819 499.209C567.692 514.362 575.192 537.736 593.819 537.884C616.946 538.073 619.425 506.834 618.414 489.916C618.288 487.762 615.621 487.042 614.421 488.836C604.163 504.19 583.68 503.418 568.532 497.141C565.99 496.09 564.876 500.231 567.395 501.271C584.525 508.365 606.779 507.977 618.123 490.995C616.792 490.635 615.461 490.275 614.13 489.916C614.987 504.178 613.947 533.886 593.819 533.6C578.014 533.377 571.691 512.055 570.103 499.209C569.771 496.507 565.482 496.473 565.819 499.209Z" fill="black"/>
<path d="M490.542 481.685C490.542 481.685 516.142 472.78 523.985 448.419C531.833 424.058 528.943 401.347 528.943 401.347C528.943 401.347 574.364 420.339 599.964 408.367C625.565 396.395 634.042 391.848 634.042 391.848C634.042 391.848 660.939 444.375 658.46 483.187C658.46 483.187 670.569 474.379 663.138 428.547C655.707 382.715 642.907 360.056 588.404 337.756C556.794 324.825 497.087 339.773 474.205 366.43C451.318 393.088 433.377 433.094 452.26 476.47C471.138 519.852 490.542 481.685 490.542 481.685Z" fill="#FF6E0B"/>
<path d="M466.18 527.7C485.792 527.7 501.691 511.801 501.691 492.189C501.691 472.577 485.792 456.678 466.18 456.678C446.568 456.678 430.669 472.577 430.669 492.189C430.669 511.801 446.568 527.7 466.18 527.7Z" fill="white"/>
<path d="M448.028 492.189C449.284 468.85 483.07 468.793 484.327 492.189C484.527 495.845 490.239 495.867 490.039 492.189C489.342 479.286 479.666 468.268 466.174 468.325C452.683 468.388 443.013 479.194 442.31 492.189C442.122 495.862 447.833 495.85 448.028 492.189Z" fill="black"/>
<path d="M451.249 412.205C463.056 364.14 511.213 338.967 557.434 337.408C562.015 337.254 562.038 330.114 557.434 330.268C508.083 331.936 456.961 359.033 444.367 410.309C443.27 414.77 450.153 416.672 451.249 412.205Z" fill="black"/>
<path d="M515.742 543.179C528.777 561.332 552.532 570.962 573.604 575.046C577.196 575.743 578.733 570.237 575.123 569.54C555.685 565.77 532.792 557.173 520.671 540.295C518.547 537.336 513.594 540.186 515.742 543.179Z" fill="black"/>
<path d="M217.713 1426.7L283.983 1340.61L339.417 1410.29C339.417 1410.29 353.045 1258.96 367.079 1178.03C381.119 1097.1 400.642 1016.73 412.123 1013.87C423.604 1011.01 495.317 990.558 495.317 990.558L505.587 884.728L507.963 771.021C507.963 771.021 718.847 718.952 722.994 729.65C727.141 740.348 747.749 841.095 722.994 942.67C722.994 942.67 800.636 1153.25 836.147 1263.08C871.657 1372.92 888.171 1530.65 869.178 1585.98C850.186 1641.31 731.265 1824.64 699.883 1855.2C668.502 1885.75 637.949 1758.58 637.949 1758.58C637.949 1758.58 676.762 1680.95 678.412 1629.75C680.063 1578.55 664.372 1455.87 609.869 1377.65C609.869 1377.65 513.732 1599.83 474.435 1631.41C435.137 1662.98 400.431 1677.37 367.079 1660.31C333.728 1643.25 282.846 1562.03 254.766 1502.58C226.692 1443.12 217.713 1426.7 217.713 1426.7Z" fill="#FF6E0B"/>
<path d="M561.107 813.935C561.421 851.879 581.076 932.554 634.659 924.517C688.254 916.475 683.353 833.578 672.472 797.25C671.872 795.24 670.033 794.463 668.08 794.754C633.294 799.998 598.514 805.241 563.729 810.49C559.199 811.17 561.124 818.053 565.625 817.373C580.653 815.106 595.681 812.844 610.704 810.576C622.813 808.748 634.922 806.926 647.037 805.098C651.389 804.442 664.087 800.112 668.211 801.905C668.182 801.894 669.696 812.661 669.867 815.037C670.856 828.654 673.637 840.792 672.615 854.518C671.004 876.137 663.796 904.508 642.216 914.481C590.335 938.46 568.515 846.732 568.241 813.929C568.207 809.342 561.067 809.337 561.107 813.935Z" fill="black"/>
<path d="M569.407 847.686C604.655 842.266 639.909 836.845 675.157 831.425C679.686 830.728 677.761 823.845 673.261 824.542C638.007 829.962 602.758 835.383 567.51 840.803C562.981 841.495 564.906 848.377 569.407 847.686Z" fill="black"/>
<path d="M207.283 1409.13C229.302 1466.67 255.349 1523.59 286.673 1576.65C310.663 1617.29 342.684 1671.5 395.513 1674.16C426.649 1675.74 453.775 1658.37 474.989 1637.07C520.335 1591.52 548.838 1528.88 573.673 1470.64C597.178 1415.53 617.129 1358.94 635.482 1301.92C647.911 1263.32 659.54 1224.46 670.644 1185.45C672.518 1178.87 677.373 1160.44 680.223 1154.5C676.716 1149.34 673.551 1156.51 677.824 1156.88C680.697 1156.53 683.57 1156.18 686.443 1155.83C693.258 1153.6 701.825 1153.95 708.971 1153.08C716.179 1152.21 716.265 1140.78 708.971 1141.66C697.382 1143.07 685.798 1144.48 674.208 1145.89C671.661 1146.2 669.433 1147.45 668.702 1150.09C639.349 1255.7 607.579 1361.37 564.825 1462.46C541.658 1517.24 515.4 1574.84 475.525 1619.79C456.459 1641.28 431.778 1661.92 401.682 1662.84C352.411 1664.33 322.058 1613.23 299.759 1576.28C267.372 1522.62 240.698 1464.62 218.301 1406.1C215.702 1399.29 204.65 1402.24 207.283 1409.13Z" fill="black"/>
<path d="M401.768 1128.75C436.559 1125.48 464.821 1096.01 479.101 1066.2C493.758 1035.6 497.99 1000.56 502.051 967.225C507.449 922.924 509.911 878.274 511.539 833.692C511.705 829.094 504.565 829.106 504.399 833.692C501.914 901.653 501.275 974.982 481.334 1040.5C470.55 1075.95 442.648 1117.77 401.768 1121.61C397.232 1122.03 397.187 1129.17 401.768 1128.75Z" fill="black"/>
<path d="M401.767 1019.74C419.057 1018.09 436.856 1011.34 453.586 1007C490.102 997.532 526.567 987.891 563.032 978.232C616.689 964.021 670.324 949.735 723.942 935.381C728.374 934.193 726.495 927.305 722.045 928.498C670.273 942.355 618.488 956.15 566.681 969.881C530.514 979.466 494.335 989.033 458.121 998.446C440.071 1003.14 420.417 1010.82 401.773 1012.6C397.232 1013.03 397.186 1020.17 401.767 1019.74Z" fill="black"/>
<path d="M266.333 1396.05C266.333 1396.05 324.086 1552.95 372.009 1551.3C419.932 1549.65 448.977 1283.74 460.88 1164.82" stroke="white" stroke-width="1.5" stroke-miterlimit="10" stroke-linecap="round" stroke-dasharray="6 6.5 3.25 6.5 3.25 6.5"/>
<path d="M341.336 1463.76C341.884 1443.8 342.438 1423.85 342.987 1403.89C343.112 1399.29 335.972 1399.3 335.847 1403.89C335.298 1423.85 334.744 1443.8 334.196 1463.76C334.07 1468.36 341.21 1468.35 341.336 1463.76Z" fill="black"/>
<path d="M439.701 674.376C439.701 674.376 425.301 644.137 428.191 641.247C431.081 638.357 455.443 626.47 459.572 634.061C463.702 641.658 541.327 815.077 541.327 815.077C541.327 815.077 550.409 834.172 538.025 844.236C525.636 854.301 513.533 846.807 495.346 805.498C477.159 764.19 439.701 674.376 439.701 674.376Z" fill="#FF6E0B"/>
<path d="M527.144 808.828C527.144 813.763 523.14 817.767 518.205 817.767C513.27 817.767 509.266 813.763 509.266 808.828C509.266 803.893 513.27 799.889 518.205 799.889C523.146 799.889 527.144 803.893 527.144 808.828Z" fill="black"/>
<path d="M427.02 652.516C445.007 697.32 463.416 741.987 482.843 786.192C492.581 808.36 514.755 884.728 546.273 837.913C548.849 834.092 542.663 830.516 540.11 834.309C520.855 862.914 510.745 830.048 503.674 815.048C493.718 793.932 484.511 772.46 475.371 750.984C461.2 717.678 447.395 684.212 433.909 650.62C432.218 646.41 425.307 648.249 427.02 652.516Z" fill="black"/>
<path d="M674.208 782.485L660.854 634.061C660.854 634.061 651.166 585.916 655.707 583.437C660.248 580.958 680.389 576.211 681.468 581.061C682.548 585.91 706.909 771.016 706.909 771.016C706.909 771.016 712.724 792.401 700.112 794.863C687.5 797.325 676.082 798.056 674.562 784.89" fill="#FF6E0B"/>
<path d="M691.172 771.021C696.109 771.021 700.111 767.019 700.111 762.082C700.111 757.145 696.109 753.143 691.172 753.143C686.235 753.143 682.233 757.145 682.233 762.082C682.233 767.019 686.235 771.021 691.172 771.021Z" fill="black"/>
<path d="M655.136 610.071C658.769 650.717 662.407 691.363 666.057 732.009C667.491 747.94 666.725 766.092 670.552 781.634C675.647 802.323 686.26 798.855 705.167 794.629C709.65 793.629 707.754 786.741 703.27 787.746C678.543 793.269 677.447 779.155 675.745 760.277C673.974 740.674 672.215 721.071 670.455 701.468C667.725 671 664.995 640.539 662.276 610.071C661.87 605.53 654.73 605.49 655.136 610.071Z" fill="black"/>
<path d="M197.79 1440.64C197.79 1440.64 174.668 1400.18 179.62 1389.44C184.578 1378.7 248.991 1290.34 259.724 1296.12C270.457 1301.9 300.187 1320.07 297.714 1333.28C295.235 1346.5 222.568 1463.76 197.79 1440.64Z" fill="#FFFDFE"/>
<path d="M200.874 1438.83C194.534 1427.59 186.909 1414.98 184.236 1402.3C181.197 1387.9 189.97 1379.42 198.007 1368.23C208.797 1353.21 240.389 1298.59 261.666 1301.29C268.235 1302.12 282.246 1314.28 285.982 1318.68C294.264 1328.42 293.401 1332.5 290.077 1341.93C285.953 1353.62 276.471 1365.41 269.611 1375.63C261.243 1388.1 220.289 1452.96 199.595 1437.55C195.905 1434.81 192.341 1441 195.991 1443.72C221.871 1462.98 259.953 1402.09 271.045 1386.17C280.612 1372.43 296.606 1354.04 300.164 1337.25C303.54 1321.31 289.574 1311.4 277.602 1302.96C264.768 1293.91 259.833 1288.99 247.449 1298.12C229.217 1311.57 215.16 1333.36 201.674 1351.29C193.083 1362.71 177.473 1377.71 175.388 1392.41C173.217 1407.77 187.531 1429.71 194.711 1442.44C196.967 1446.44 203.136 1442.85 200.874 1438.83Z" fill="#0567A9"/>
<path d="M654.057 1902.06C654.057 1902.06 593.362 1795.53 594.596 1780.05C595.835 1764.57 622.47 1736.08 633.614 1734.22C644.763 1732.36 657.769 1758.38 681.925 1797.39C706.081 1836.41 717.847 1859.33 711.656 1875.43C705.464 1891.54 667.68 1919.41 654.057 1902.06Z" fill="#FFFDFE"/>
<path d="M657.135 1900.26C648.208 1884.57 639.514 1868.73 631.032 1852.79C620.836 1833.64 597.309 1802.06 598.72 1779.68C599.377 1769.27 608.293 1759.32 615.176 1752.06C626.908 1739.69 635.567 1736.39 648.065 1749.8C661.745 1764.48 671.135 1786.51 681.514 1803.56C691.201 1819.48 707.246 1840.2 708.988 1859.32C710.759 1878.8 678.018 1919.04 656.576 1899.54C653.183 1896.46 648.116 1901.49 651.526 1904.59C677.333 1928.05 720.663 1886 715.871 1857.42C710.702 1826.59 685.763 1796.75 669.947 1770.84C663.493 1760.27 651.738 1732.43 636.218 1730.71C620.819 1729.01 603.872 1752.37 597.355 1763.49C588.924 1777.87 591.368 1786.61 597.543 1801.26C612.48 1836.66 631.98 1870.51 650.961 1903.87C653.246 1907.86 659.414 1904.27 657.135 1900.26Z" fill="#0567A9"/>
</svg>
