<svg width="1698" height="1698" viewBox="0 0 1698 1698" fill="none" xmlns="http://www.w3.org/2000/svg">
<rect width="1698" height="1698" rx="200" fill="#FF6E0B"/>
<path fill-rule="evenodd" clip-rule="evenodd" d="M380.25 474H1317.75C1355.05 474 1390.81 488.816 1417.19 515.188C1443.56 541.56 1458.37 577.329 1458.38 614.625V1083.38C1458.37 1120.67 1443.56 1156.44 1417.19 1182.81C1390.81 1209.18 1355.05 1224 1317.75 1224H380.25C342.954 1224 307.185 1209.18 280.813 1182.81C254.441 1156.44 239.625 1120.67 239.625 1083.38V614.625C239.625 577.329 254.441 541.56 280.813 515.188C307.185 488.816 342.954 474 380.25 474ZM99 614.625C99 540.033 128.632 468.496 181.376 415.751C234.121 363.007 305.658 333.375 380.25 333.375H1317.75C1392.34 333.375 1463.88 363.007 1516.62 415.751C1569.37 468.496 1599 540.033 1599 614.625V1083.38C1599 1157.97 1569.37 1229.5 1516.62 1282.25C1463.88 1334.99 1392.34 1364.62 1317.75 1364.62H380.25C305.658 1364.62 234.121 1334.99 181.376 1282.25C128.632 1229.5 99 1157.97 99 1083.38L99 614.625ZM684.938 919.312C666.289 919.312 648.405 926.72 635.219 939.907C622.033 953.093 614.625 970.977 614.625 989.625C614.625 1008.27 622.033 1026.16 635.219 1039.34C648.405 1052.53 666.289 1059.94 684.938 1059.94H1013.06C1031.71 1059.94 1049.59 1052.53 1062.78 1039.34C1075.97 1026.16 1083.38 1008.27 1083.38 989.625C1083.38 970.977 1075.97 953.093 1062.78 939.907C1049.59 926.72 1031.71 919.312 1013.06 919.312H684.938ZM520.875 708.375C520.875 733.239 510.998 757.085 493.416 774.666C475.835 792.248 451.989 802.125 427.125 802.125C402.261 802.125 378.415 792.248 360.834 774.666C343.252 757.085 333.375 733.239 333.375 708.375C333.375 683.511 343.252 659.665 360.834 642.084C378.415 624.502 402.261 614.625 427.125 614.625C451.989 614.625 475.835 624.502 493.416 642.084C510.998 659.665 520.875 683.511 520.875 708.375ZM708.375 802.125C733.239 802.125 757.085 792.248 774.666 774.666C792.248 757.085 802.125 733.239 802.125 708.375C802.125 683.511 792.248 659.665 774.666 642.084C757.085 624.502 733.239 614.625 708.375 614.625C683.511 614.625 659.665 624.502 642.084 642.084C624.502 659.665 614.625 683.511 614.625 708.375C614.625 733.239 624.502 757.085 642.084 774.666C659.665 792.248 683.511 802.125 708.375 802.125ZM1083.38 708.375C1083.38 733.239 1073.5 757.085 1055.92 774.666C1038.33 792.248 1014.49 802.125 989.625 802.125C964.761 802.125 940.915 792.248 923.334 774.666C905.752 757.085 895.875 733.239 895.875 708.375C895.875 683.511 905.752 659.665 923.334 642.084C940.915 624.502 964.761 614.625 989.625 614.625C1014.49 614.625 1038.33 624.502 1055.92 642.084C1073.5 659.665 1083.38 683.511 1083.38 708.375ZM1270.88 802.125C1295.74 802.125 1319.58 792.248 1337.17 774.666C1354.75 757.085 1364.62 733.239 1364.62 708.375C1364.62 683.511 1354.75 659.665 1337.17 642.084C1319.58 624.502 1295.74 614.625 1270.88 614.625C1246.01 614.625 1222.17 624.502 1204.58 642.084C1187 659.665 1177.12 683.511 1177.12 708.375C1177.12 733.239 1187 757.085 1204.58 774.666C1222.17 792.248 1246.01 802.125 1270.88 802.125ZM520.875 989.625C520.875 1014.49 510.998 1038.33 493.416 1055.92C475.835 1073.5 451.989 1083.38 427.125 1083.38C402.261 1083.38 378.415 1073.5 360.834 1055.92C343.252 1038.33 333.375 1014.49 333.375 989.625C333.375 964.761 343.252 940.915 360.834 923.334C378.415 905.752 402.261 895.875 427.125 895.875C451.989 895.875 475.835 905.752 493.416 923.334C510.998 940.915 520.875 964.761 520.875 989.625ZM1270.88 1083.38C1295.74 1083.38 1319.58 1073.5 1337.17 1055.92C1354.75 1038.33 1364.62 1014.49 1364.62 989.625C1364.62 964.761 1354.75 940.915 1337.17 923.334C1319.58 905.752 1295.74 895.875 1270.88 895.875C1246.01 895.875 1222.17 905.752 1204.58 923.334C1187 940.915 1177.12 964.761 1177.12 989.625C1177.12 1014.49 1187 1038.33 1204.58 1055.92C1222.17 1073.5 1246.01 1083.38 1270.88 1083.38Z" fill="white"/>
</svg>
